# xmcd
#
# Track frame offsets: 
#        150
#        11490
#        27728
#        39442
#        51486
#        65100
#        73831
#        103538
#        132296
#        142747
#
# Disc length: 2110 seconds
#
# Revision: 0
# Processed by: cddbd v1.5.2PL0 Copyright (c) Steve Scherf et al.
# Submitted via: ExactAudioCopy v1.0b4
#
DISCID=92083c0a
DTITLE=Memphis Slim - Big City Girl (LP)
DYEAR=1900
DGENRE=Blues
TTITLE0=El Capitan
TTITLE1=This Is A Good Time To Write A Song
TTITLE2=I'm So All Alone
TTITLE3=True Love
TTITLE4=Two Of A Kind
TTITLE5=Big City Girl
TTITLE6=Three And One Boogie
TTITLE7=Bertha May
TTITLE8=Celeste Boogie No. 2
TTITLE9=Three Woman Blues
EXTD=
EXTT0=
EXTT1=
EXTT2=
EXTT3=
EXTT4=
EXTT5=
EXTT6=
EXTT7=
EXTT8=
EXTT9=
PLAYORDER=
